<svg id="Capa_1" enable-background="new 0 0 512 512" height="512" viewBox="0 0 512 512" width="512" xmlns="http://www.w3.org/2000/svg"><g><path d="m410 384.862c-4.143 0-7.5 3.358-7.5 7.5v74.638c0 16.542-13.458 30-30 30h-233c-16.542 0-30-13.458-30-30v-422c0-16.542 13.458-30 30-30h147.713c4.143 0 7.5-3.358 7.5-7.5s-3.357-7.5-7.5-7.5h-147.713c-24.813 0-45 20.187-45 45v422c0 24.813 20.187 45 45 45h233c24.813 0 45-20.187 45-45v-74.638c0-4.142-3.357-7.5-7.5-7.5z"/><path d="m372.5 0h-50.309c-4.143 0-7.5 3.358-7.5 7.5s3.357 7.5 7.5 7.5h50.309c16.542 0 30 13.458 30 30v312.383c0 4.142 3.357 7.5 7.5 7.5s7.5-3.358 7.5-7.5v-312.383c0-24.813-20.187-45-45-45z"/><path d="m269 45c4.143 0 7.5-3.358 7.5-7.5s-3.357-7.5-7.5-7.5h-50c-4.142 0-7.5 3.358-7.5 7.5s3.358 7.5 7.5 7.5z"/><path d="m387 101.158c0-22.784-18.536-41.319-41.319-41.319h-179.362c-22.784 0-41.319 18.536-41.319 41.319v15.034c0 4.142 3.358 7.5 7.5 7.5s7.5-3.358 7.5-7.5v-15.034c0-14.513 11.807-26.319 26.319-26.319h179.361c14.513 0 26.319 11.807 26.319 26.319v106.166c0 14.513-11.807 26.319-26.319 26.319h-46.328c-7.896 0-15.446 3.375-20.712 9.261l-21.116 23.602c-.487.545-1.035.688-1.475.656-.404-.001-.986-.119-1.47-.668l-20.618-23.422c-5.274-5.992-12.877-9.428-20.86-9.428h-46.782c-14.513 0-26.319-11.807-26.319-26.319v-56.325c0-4.142-3.358-7.5-7.5-7.5s-7.5 3.358-7.5 7.5v56.324c0 22.784 18.536 41.319 41.319 41.319h46.782c3.674 0 7.174 1.582 9.602 4.339l20.617 23.422c3.204 3.639 7.821 5.737 12.669 5.757h.068c4.823 0 9.429-2.059 12.646-5.655l21.116-23.601c2.423-2.709 5.897-4.263 9.532-4.263h46.328c22.783 0 41.319-18.536 41.319-41.319v-106.165z"/><path d="m341.787 121c0-17.369-14.131-31.5-31.5-31.5s-31.5 14.131-31.5 31.5 14.131 31.5 31.5 31.5 31.5-14.131 31.5-31.5zm-48 0c0-9.098 7.402-16.5 16.5-16.5s16.5 7.402 16.5 16.5-7.402 16.5-16.5 16.5-16.5-7.402-16.5-16.5z"/><path d="m262.287 200v6c0 6.893 5.607 12.5 12.5 12.5h71c6.341 0 11.5-5.159 11.5-11.5v-7c0-17.92-14.579-32.5-32.5-32.5h-30c-17.921 0-32.5 14.58-32.5 32.5zm15 0c0-9.649 7.851-17.5 17.5-17.5h30c9.649 0 17.5 7.851 17.5 17.5v3.5h-65z"/><path d="m236.866 201.5c4.142 0 7.5-3.358 7.5-7.5v-80c0-4.142-3.358-7.5-7.5-7.5h-17.099c-4.142 0-7.5 3.358-7.5 7.5s3.358 7.5 7.5 7.5h9.599v72.5c0 4.142 3.358 7.5 7.5 7.5z"/><path d="m182.5 126.5c-4.142 0-7.5 3.358-7.5 7.5v12.5h-12.5c-4.142 0-7.5 3.358-7.5 7.5s3.358 7.5 7.5 7.5h12.5v12.5c0 4.142 3.358 7.5 7.5 7.5s7.5-3.358 7.5-7.5v-12.5h12.5c4.142 0 7.5-3.358 7.5-7.5s-3.358-7.5-7.5-7.5h-12.5v-12.5c0-4.142-3.358-7.5-7.5-7.5z"/><path d="m256.5 298c-12.194 0-23.786 4.614-32.64 12.991-3.009 2.847-3.141 7.594-.294 10.603 2.846 3.009 7.593 3.141 10.603.294 6.058-5.731 13.988-8.887 22.332-8.887 17.921 0 32.5 14.58 32.5 32.5s-14.58 32.499-32.501 32.499c-17.034 0-31.276-13.294-32.425-30.265-.28-4.132-3.848-7.263-7.989-6.977-4.133.28-7.256 3.857-6.977 7.989 1.68 24.815 22.496 44.253 47.391 44.253 26.191 0 47.5-21.309 47.5-47.5s-21.309-47.5-47.5-47.5z"/><path d="m294 425.5c0-4.142-3.357-7.5-7.5-7.5h-60c-4.142 0-7.5 3.358-7.5 7.5s3.358 7.5 7.5 7.5h60c4.143 0 7.5-3.358 7.5-7.5z"/><path d="m204 425.5c0-4.142-3.358-7.5-7.5-7.5h-60c-4.142 0-7.5 3.358-7.5 7.5s3.358 7.5 7.5 7.5h60c4.142 0 7.5-3.358 7.5-7.5z"/><path d="m384 425.5c0-4.142-3.357-7.5-7.5-7.5h-60c-4.143 0-7.5 3.358-7.5 7.5s3.357 7.5 7.5 7.5h60c4.143 0 7.5-3.358 7.5-7.5z"/><path d="m246.5 448c-4.142 0-7.5 3.358-7.5 7.5s3.358 7.5 7.5 7.5h20c4.143 0 7.5-3.358 7.5-7.5s-3.357-7.5-7.5-7.5z"/><path d="m156.5 448c-4.142 0-7.5 3.358-7.5 7.5s3.358 7.5 7.5 7.5h20c4.142 0 7.5-3.358 7.5-7.5s-3.358-7.5-7.5-7.5z"/><path d="m336.5 448c-4.143 0-7.5 3.358-7.5 7.5s3.357 7.5 7.5 7.5h20c4.143 0 7.5-3.358 7.5-7.5s-3.357-7.5-7.5-7.5z"/><circle cx="294" cy="37.5" r="7.5"/></g></svg>