<?xml version="1.0" encoding="iso-8859-1"?>
<!-- Generator: Adobe Illustrator 18.0.0, SVG Export Plug-In . SVG Version: 6.00 Build 0)  -->
<!DOCTYPE svg PUBLIC "-//W3C//DTD SVG 1.1//EN" "http://www.w3.org/Graphics/SVG/1.1/DTD/svg11.dtd">
<svg version="1.1" id="Capa_1" xmlns="http://www.w3.org/2000/svg" xmlns:xlink="http://www.w3.org/1999/xlink" x="0px" y="0px"
	 viewBox="0 0 465.493 465.493" style="enable-background:new 0 0 465.493 465.493;" xml:space="preserve">
<g id="XMLID_496_">
	<path id="XMLID_507_" d="M77.577,239.863v-0.414c16.122-5.953,23.556-17.814,23.556-30.531c0-12.933-7.221-22.693-17.192-27.966
		c-10.38-6.156-22.48-8.059-42.18-8.059c-13.052,0-26.832,0.831-36.076,2.047C2.437,175.363,0,178.128,0,181.399v129.018
		c0,3.337,2.508,6.124,5.832,6.479c7.162,0.771,16.986,1.39,29.157,1.39c28.417,0,45.793-4.667,56.173-12.922
		c8.883-7.215,14.833-17.397,14.833-30.307C105.995,256.603,93.912,244.319,77.577,239.863z M32.014,197.26
		c2.78-0.43,6.801-0.846,13.792-0.846c14.596,0,22.875,5.71,22.875,16.527c0,10.598-9.095,17.595-26.045,17.595H32.014V197.26z
		 M44.54,294.333c-5.518,0-9.338,0-12.526-0.414v-40.285h11.03c16.104,0,29.039,5.725,29.039,20.137
		C72.082,288.82,59.148,294.333,44.54,294.333z"/>
	<path id="XMLID_503_" d="M191.064,171.608c-42.191,0-69.539,32.013-69.539,74.811c0,40.701,24.81,72.711,67.226,72.711
		c41.731,0,70.13-28.399,70.13-75.24C258.881,204.475,234.923,171.608,191.064,171.608z M206.068,252.915
		c-4.052,0-7.316-3.275-7.316-7.319c0-4.046,3.265-7.327,7.316-7.327c4.045,0,7.327,3.28,7.327,7.327
		C213.395,249.639,210.113,252.915,206.068,252.915z M155.667,245.792c0-27.752,12.721-48.531,34.539-48.531
		c17.282,0,28.459,13.334,32.629,31.266c-3.821-2.84-8.186-4.594-12.899-4.594c-14.384,0-26.017,15.069-26.017,33.652
		c0,15.9,8.552,29.127,20.002,32.655c-4.004,2.023-8.475,3.241-13.508,3.241C168.779,293.481,155.667,273.771,155.667,245.792z"/>
	<path id="XMLID_499_" d="M343.094,171.608c-42.18,0-69.498,32.013-69.498,74.811c0,40.701,24.822,72.711,67.196,72.711
		c41.761,0,70.131-28.399,70.131-75.24C410.923,204.475,386.994,171.608,343.094,171.608z M317.757,245.596
		c0-4.046,3.276-7.327,7.328-7.327c4.045,0,7.31,3.28,7.31,7.327c0,4.043-3.265,7.319-7.31,7.319
		C321.034,252.915,317.757,249.639,317.757,245.596z M342.455,293.481c-5.541,0-10.515-1.34-14.862-3.741
		c10.817-4.078,18.76-16.843,18.76-32.155c0-18.583-11.634-33.652-26.011-33.652c-3.69,0-7.163,1.021-10.35,2.803
		c4.56-17.676,15.814-29.475,32.285-29.475c22.237,0,34.533,22.051,34.533,47.686C376.81,272.698,364.319,293.481,342.455,293.481z"
		/>
	<path id="XMLID_498_" d="M446.621,280.565c-11.225,0-19.079,8.043-19.079,19.268c0,11.036,7.641,19.297,19.079,19.297
		c11.468,0,18.872-8.261,18.872-19.297C465.263,288.608,457.846,280.565,446.621,280.565z"/>
	<path id="XMLID_497_" d="M440.819,269.958h11.622c3.502,0,6.37-2.77,6.505-6.27l3.797-100.493
		c0.166-4.405-1.466-8.688-4.536-11.861c-3.051-3.178-7.262-4.971-11.663-4.971c-4.423,0-8.641,1.798-11.692,4.98
		c-3.064,3.178-4.696,7.47-4.53,11.873l3.986,100.478C434.444,267.192,437.318,269.958,440.819,269.958z"/>
</g>
<g>
</g>
<g>
</g>
<g>
</g>
<g>
</g>
<g>
</g>
<g>
</g>
<g>
</g>
<g>
</g>
<g>
</g>
<g>
</g>
<g>
</g>
<g>
</g>
<g>
</g>
<g>
</g>
<g>
</g>
</svg>
